<svg xmlns="http://www.w3.org/2000/svg" viewBox="0 0 32 32"><title>game android app aplication phone</title><g id="game_android_app_aplication_phone" data-name="game android app aplication phone"><path d="M30.56,8.47a8,8,0,0,0-7-7,64.29,64.29,0,0,0-15.06,0,8,8,0,0,0-7,7,64.29,64.29,0,0,0,0,15.06,8,8,0,0,0,7,7,64.29,64.29,0,0,0,15.06,0,8,8,0,0,0,7-7A64.29,64.29,0,0,0,30.56,8.47Zm-2,14.83a6,6,0,0,1-5.28,5.28,63.65,63.65,0,0,1-14.6,0A6,6,0,0,1,3.42,23.3a63.65,63.65,0,0,1,0-14.6A6,6,0,0,1,8.7,3.42a63.65,63.65,0,0,1,14.6,0A6,6,0,0,1,28.58,8.7,63.65,63.65,0,0,1,28.58,23.3Z"/><path d="M27,12a1,1,0,0,0-1-1H21V6a1,1,0,0,0-2,0v5H13V6a1,1,0,0,0-2,0v5H6a1,1,0,0,0,0,2h5v6H6a1,1,0,0,0,0,2h5v5a1,1,0,0,0,2,0V21h6v5a1,1,0,0,0,2,0V21h5a1,1,0,0,0,0-2H21V13h5A1,1,0,0,0,27,12Zm-8,7H13V13h6Z"/><circle cx="16" cy="16" r="2"/><path d="M6.29,17.71a1,1,0,0,0,1.42,0l.29-.3.29.3a1,1,0,0,0,1.42-1.42L9.41,16l.3-.29a1,1,0,0,0-1.42-1.42l-.29.3-.29-.3a1,1,0,0,0-1.42,1.42l.3.29-.3.29A1,1,0,0,0,6.29,17.71Z"/><path d="M25.71,14.29a1,1,0,0,0-1.42,0l-.29.3-.29-.3a1,1,0,0,0-1.42,1.42l.3.29-.3.29a1,1,0,0,0,1.42,1.42l.29-.3.29.3a1,1,0,0,0,1.42,0,1,1,0,0,0,0-1.42l-.3-.29.3-.29A1,1,0,0,0,25.71,14.29Z"/></g></svg>